<?xml version="1.0" standalone="no"?>
<!DOCTYPE svg PUBLIC "-//W3C//DTD SVG 20010904//EN"
 "http://www.w3.org/TR/2001/REC-SVG-20010904/DTD/svg10.dtd">
<svg version="1.0" xmlns="http://www.w3.org/2000/svg"
 width="419.000000pt" height="206.000000pt" viewBox="0 0 419.000000 206.000000"
 preserveAspectRatio="xMidYMid meet">

<g transform="translate(0.000000,206.000000) scale(0.100000,-0.100000)"
fill="#000000" stroke="none">
<path d="M1760 1833 c0 -5 13 -22 29 -40 20 -24 33 -30 49 -26 12 3 22 9 22
14 0 5 8 9 18 10 9 0 -1 9 -23 19 -50 22 -95 33 -95 23z"/>
<path d="M2466 1775 c-18 -14 -18 -15 1 -48 39 -65 73 -95 73 -63 0 8 5 16 11
18 12 4 -46 108 -59 108 -4 0 -15 -7 -26 -15z"/>
<path d="M1618 1627 c-30 -35 -40 -69 -13 -47 8 7 15 17 15 23 0 6 7 19 17 29
9 10 14 20 12 22 -2 2 -16 -10 -31 -27z"/>
<path d="M1884 1516 l-79 -41 -3 -50 c-1 -27 1 -67 5 -89 l8 -38 88 77 c81 70
87 79 85 111 -1 19 -7 34 -13 34 -6 0 -6 3 1 8 9 5 9 10 0 18 -10 9 -32 1 -92
-30z"/>
<path d="M1520 1544 c0 -8 25 -29 54 -45 12 -7 16 -7 12 -1 -3 6 2 12 11 14
14 3 11 8 -14 21 -32 17 -63 22 -63 11z"/>
<path d="M1340 1343 c0 -4 5 -15 10 -23 8 -13 10 -13 10 2 0 9 -4 20 -10 23
-5 3 -10 3 -10 -2z"/>
<path d="M1287 1290 c-20 -30 -35 -55 -34 -57 2 -1 16 1 33 6 38 10 62 50 48
82 -10 22 -12 21 -47 -31z"/>
<path d="M2571 1226 c2 -2 40 -6 84 -9 59 -4 69 -3 40 3 -40 9 -132 13 -124 6z"/>
<path d="M1675 1023 c11 -27 14 -113 4 -113 -5 0 -9 -4 -9 -10 0 -5 14 -10 32
-10 25 0 29 3 20 12 -23 23 -14 48 17 48 29 0 49 -24 31 -35 -20 -12 -9 -25
22 -25 25 0 29 3 20 12 -14 14 -16 118 -2 118 6 0 10 5 10 10 0 6 -13 10 -30
10 -29 0 -40 -13 -21 -24 5 -3 7 -15 4 -26 -4 -14 -14 -20 -34 -20 -24 0 -29
4 -29 25 0 14 5 25 10 25 6 0 10 5 10 10 0 6 -14 10 -31 10 -26 0 -30 -3 -24
-17z"/>
<path d="M1896 1008 c-8 -19 -18 -46 -21 -61 -4 -15 -11 -30 -16 -33 -18 -11
-8 -24 17 -24 21 0 24 4 19 20 -5 17 -2 20 25 20 27 0 30 -3 25 -20 -5 -16 -2
-20 19 -20 27 0 33 9 16 26 -5 5 -18 34 -28 64 -10 30 -24 56 -30 58 -7 2 -19
-12 -26 -30z m34 -17 c0 -5 3 -16 6 -25 4 -12 0 -16 -16 -16 -16 0 -20 4 -16
16 3 9 6 20 6 25 0 5 5 9 10 9 6 0 10 -4 10 -9z"/>
<path d="M2020 1031 c0 -5 4 -11 9 -13 4 -1 17 -30 28 -63 27 -81 45 -82 68
-5 10 34 22 63 27 66 17 11 7 24 -18 24 -18 0 -25 -4 -21 -14 7 -17 -12 -96
-23 -96 -9 0 -25 67 -22 93 1 12 -5 17 -23 17 -14 0 -25 -4 -25 -9z"/>
<path d="M2205 965 l0 -75 53 0 c45 0 52 3 52 20 0 11 -4 20 -10 20 -5 0 -10
-4 -10 -10 0 -5 -11 -10 -25 -10 -20 0 -25 5 -25 25 0 20 5 25 25 25 14 0 25
5 25 10 0 6 -11 10 -25 10 -18 0 -25 5 -25 20 0 15 7 20 25 20 14 0 25 -4 25
-10 0 -5 5 -10 10 -10 6 0 10 9 10 20 0 17 -7 20 -52 20 l-53 0 0 -75z"/>
<path d="M2350 1030 c0 -5 5 -10 10 -10 6 0 10 -25 10 -55 0 -30 -4 -55 -10
-55 -5 0 -10 -4 -10 -10 0 -5 14 -10 30 -10 29 0 42 14 19 22 -6 2 -9 21 -7
43 l3 40 32 -52 c18 -29 37 -53 43 -53 6 0 10 28 10 65 0 37 4 65 10 65 6 0
10 5 10 10 0 6 -13 10 -30 10 -29 0 -42 -14 -19 -22 6 -2 9 -21 7 -43 l-3 -40
-30 52 c-22 39 -36 53 -52 53 -13 0 -23 -4 -23 -10z"/>
<path d="M1560 527 c-38 -19 -57 -59 -42 -91 11 -25 33 -38 109 -66 17 -7 34
-18 37 -26 22 -57 -81 -74 -106 -18 -16 36 -48 32 -48 -6 0 -41 39 -65 106
-65 42 0 58 5 78 24 50 47 21 108 -64 136 -71 23 -87 62 -33 79 31 10 70 -3
76 -25 5 -20 36 -27 38 -9 5 39 1 46 -31 62 -41 21 -85 23 -120 5z"/>
<path d="M1780 500 c0 -33 3 -40 20 -40 13 0 20 7 20 20 0 16 7 20 30 20 l30
0 0 -104 c0 -83 -3 -105 -15 -110 -8 -3 -15 -12 -15 -21 0 -12 12 -15 55 -15
43 0 55 3 55 15 0 9 -7 18 -15 21 -12 5 -15 27 -15 110 l0 104 30 0 c23 0 30
-4 30 -20 0 -13 7 -20 20 -20 17 0 20 7 20 40 l0 40 -125 0 -125 0 0 -40z"/>
<path d="M2150 415 c-23 -69 -46 -127 -51 -130 -5 -4 -9 -13 -9 -21 0 -10 12
-14 45 -14 32 0 45 4 45 14 0 8 -5 16 -11 18 -7 2 -9 13 -5 26 6 19 15 22 56
22 41 0 48 -3 54 -22 3 -13 1 -24 -4 -26 -6 -2 -10 -10 -10 -18 0 -10 13 -14
45 -14 32 0 45 4 45 14 0 8 -4 16 -8 18 -5 2 -28 60 -52 131 -41 122 -44 127
-71 127 -26 0 -29 -5 -69 -125z m84 28 c3 -16 8 -38 12 -50 6 -20 3 -23 -25
-23 -36 0 -35 -3 -20 56 13 50 24 56 33 17z"/>
<path d="M2410 520 c0 -11 6 -20 13 -20 17 0 87 -143 87 -179 0 -16 -6 -31
-15 -35 -8 -3 -15 -12 -15 -21 0 -12 12 -15 55 -15 43 0 55 3 55 15 0 9 -7 18
-15 21 -26 10 -17 62 26 139 22 41 45 75 50 75 5 0 9 9 9 20 0 17 -7 20 -50
20 -43 0 -50 -3 -50 -19 0 -11 5 -21 11 -23 8 -3 4 -19 -11 -47 -12 -24 -25
-39 -30 -35 -15 16 -39 84 -29 84 5 0 9 9 9 20 0 17 -7 20 -50 20 -43 0 -50
-3 -50 -20z"/>
</g>
</svg>
